<svg xmlns="http://www.w3.org/2000/svg" viewBox="0 0 460 700" width="1380" height="2100" font-family="Helvetica,Arial,sans-serif">
<rect width="460" height="700" fill="#eef2ea"/><rect width="460" height="630" fill="#e9eee3"/>
<path d="M258.0,630.0 L263.0,575.0 L277.0,490.0 L300.0,425.0 L327.0,345.0 L350.0,255.0 L365.0,165.0 L385.0,85.0 L401.0,0.0" fill="none" stroke="#b9dff0" stroke-width="9" stroke-linecap="round" stroke-linejoin="round"/>
<path d="M3.0,425.0 L35.0,305.0 L95.0,165.0 L177.0,0.0" fill="none" stroke="#ffffff" stroke-width="7" stroke-linecap="round" stroke-linejoin="round"/>
<path d="M247.0,575.0 L170.0,515.0 L65.0,445.0 L5.0,395.0" fill="none" stroke="#ffffff" stroke-width="7" stroke-linecap="round" stroke-linejoin="round"/>
<path d="M246.0,630.0 L247.0,575.0 L251.0,525.0 L293.0,425.0" fill="none" stroke="#ffffff" stroke-width="7" stroke-linecap="round" stroke-linejoin="round"/>
<path d="M293.0,425.0 L323.0,325.0 L347.0,205.0 L368.0,85.0 L385.0,0.0" fill="none" stroke="#ffffff" stroke-width="7" stroke-linecap="round" stroke-linejoin="round"/>
<path id="p6128377672747059765" d="M258.0,630.0 L263.0,575.0 L277.0,490.0 L300.0,425.0 L327.0,345.0 L350.0,255.0 L365.0,165.0 L385.0,85.0 L401.0,0.0" fill="none"/>
<text font-size="7.5" fill="#5aa7c9" font-weight="600" letter-spacing=".4"><textPath href="#p6128377672747059765" startOffset="50%" text-anchor="middle"><tspan dy="-5">Río Sadar</tspan></textPath></text>
<path id="p5359252888764036922" d="M3.0,425.0 L35.0,305.0 L95.0,165.0 L177.0,0.0" fill="none"/>
<text font-size="7.5" fill="#7a8591" font-weight="600" letter-spacing=".4"><textPath href="#p5359252888764036922" startOffset="50%" text-anchor="middle"><tspan dy="-5">Av. de Navarra</tspan></textPath></text>
<path id="p1559249846953464552" d="M5.0,395.0 L65.0,445.0 L170.0,515.0 L247.0,575.0" fill="none"/>
<text font-size="7.5" fill="#7a8591" font-weight="600" letter-spacing=".4"><textPath href="#p1559249846953464552" startOffset="50%" text-anchor="middle"><tspan dy="-5">Calle Universidad</tspan></textPath></text>
<path id="p1270128071903200700" d="M293.0,425.0 L323.0,325.0 L347.0,205.0 L368.0,85.0 L385.0,0.0" fill="none"/>
<text font-size="7.5" fill="#7a8591" font-weight="600" letter-spacing=".4"><textPath href="#p1270128071903200700" startOffset="50%" text-anchor="middle"><tspan dy="-5">Calle Universidad</tspan></textPath></text>
<circle cx="97.0" cy="293.0" r="3" fill="#aab3ab"/><text x="97.0" y="303.0" font-size="6.8" fill="#7d877f" text-anchor="middle">Museo</text>
<circle cx="217.0" cy="475.0" r="3" fill="#aab3ab"/><text x="217.0" y="485.0" font-size="6.8" fill="#7d877f" text-anchor="middle">Univ. de Navarra</text>
<circle cx="307.0" cy="373.0" r="3" fill="#aab3ab"/><text x="307.0" y="383.0" font-size="6.8" fill="#7d877f" text-anchor="middle">Comedores</text>
<circle cx="367.0" cy="425.0" r="3" fill="#aab3ab"/><text x="367.0" y="435.0" font-size="6.8" fill="#7d877f" text-anchor="middle">Arquitectura</text>
<circle cx="417.0" cy="245.0" r="3" fill="#aab3ab"/><text x="417.0" y="255.0" font-size="6.8" fill="#7d877f" text-anchor="middle">Polideportivo</text>
<polygon points="273.8,495.6 320.8,484.8 324.5,487.5 346.3,574.8 321.5,585.6 296.8,590.7 292.3,583.1 287.0,560.6 299.0,559.1 302.0,555.6 296.3,525.6 286.3,525.3 279.5,517.8" fill="#3b82c4" fill-opacity=".42" stroke="#1e5a9c" stroke-width="1.4" stroke-linejoin="round"/>
<polygon points="248.0,357.6 250.5,351.1 256.6,347.1 271.0,345.7 318.5,344.2 317.4,349.6 294.4,350.4 295.5,366.2 290.4,371.2 268.8,374.1 254.1,372.3" fill="#3b82c4" fill-opacity=".42" stroke="#1e5a9c" stroke-width="1.4" stroke-linejoin="round"/>
<polygon points="402.2,40.2 407.0,38.4 431.2,30.5 433.1,31.3 438.3,48.3 441.1,58.8 440.8,60.4 431.8,65.7 424.4,73.1 420.7,77.4 415.7,83.0 413.5,88.1 411.4,86.1 408.9,79.9 403.9,68.8 400.2,57.6 399.3,48.3 400.2,44.0" fill="#3b82c4" fill-opacity=".42" stroke="#1e5a9c" stroke-width="1.4" stroke-linejoin="round"/>
<polygon points="280.8,37.9 281.7,33.6 286.5,28.1 300.4,35.3 318.7,45.3 329.1,54.9 336.1,58.8 336.3,63.6 350.0,73.0 347.8,77.1 322.2,62.7 308.2,54.0 289.1,41.4" fill="#3b82c4" fill-opacity=".42" stroke="#1e5a9c" stroke-width="1.4" stroke-linejoin="round"/>
<polygon points="210.9,139.9 249.7,136.7 260.9,146.1 262.7,194.1 214.9,197.7 214.1,189.7 221.5,189.3 222.7,163.3 219.7,146.1 212.9,147.1" fill="#3b82c4" fill-opacity=".42" stroke="#1e5a9c" stroke-width="1.4" stroke-linejoin="round"/>
<polygon points="194.9,231.9 206.8,231.1 207.0,232.8 216.2,231.9 219.3,265.1 221.1,299.1 200.7,298.5 199.0,271.9 198.3,259.1 196.6,252.8 194.9,252.8" fill="#3b82c4" fill-opacity=".42" stroke="#1e5a9c" stroke-width="1.4" stroke-linejoin="round"/>
<polygon points="184.2,264.9 196.0,264.1 197.1,271.9 197.4,287.9 197.8,298.1 176.6,302.6 168.1,301.0 167.2,292.6 173.2,289.7 180.0,290.9 184.2,290.9" fill="#3b82c4" fill-opacity=".42" stroke="#1e5a9c" stroke-width="1.4" stroke-linejoin="round"/>
<polygon points="21.5,486.3 67.2,498.9 66.8,499.9 62.4,520.7 58.4,530.3 54.0,534.3 40.8,530.3 25.6,525.1 14.8,521.9 18.4,502.3" fill="#7fa6cf" fill-opacity=".42" stroke="#1e5a9c" stroke-width="1.4" stroke-linejoin="round" stroke-dasharray="4 2.5"/>
<polygon points="339.7,328.7 346.2,328.7 347.7,341.9 352.7,371.4 364.8,371.6 365.4,388.9 329.2,387.9 326.0,370.4 341.7,369.7 341.4,334.4 339.7,333.9" fill="#3b82c4" fill-opacity=".42" stroke="#1e5a9c" stroke-width="1.4" stroke-linejoin="round"/>
<rect x="301.5" y="530.8" width="16" height="16" rx="2.2" fill="#0b3d8f" stroke="#fff" stroke-width="1"/>
<text x="306.7" y="543.4" font-size="12.5" font-weight="700" fill="#fff" text-anchor="middle">P</text>
<text x="314.1" y="544.4" font-size="7.6" font-weight="700" fill="#fff" text-anchor="middle">1</text>
<text x="309.5" y="556.8" font-size="7.2" font-weight="700" fill="none" text-anchor="middle" stroke="#eef2ea" stroke-width="3" stroke-linejoin="round">COMEDORES</text>
<text x="309.5" y="556.8" font-size="7.2" font-weight="700" fill="#0b3d8f" text-anchor="middle">COMEDORES</text>
<rect x="263.0" y="351.0" width="16" height="16" rx="2.2" fill="#0b3d8f" stroke="#fff" stroke-width="1"/>
<text x="268.2" y="363.6" font-size="12.5" font-weight="700" fill="#fff" text-anchor="middle">P</text>
<text x="275.6" y="364.6" font-size="7.6" font-weight="700" fill="#fff" text-anchor="middle">2</text>
<text x="271.0" y="377.0" font-size="7.2" font-weight="700" fill="none" text-anchor="middle" stroke="#eef2ea" stroke-width="3" stroke-linejoin="round">ISMAEL</text>
<text x="271.0" y="377.0" font-size="7.2" font-weight="700" fill="#0b3d8f" text-anchor="middle">ISMAEL</text>
<rect x="411.4" y="51.5" width="16" height="16" rx="2.2" fill="#0b3d8f" stroke="#fff" stroke-width="1"/>
<text x="416.6" y="64.1" font-size="12.5" font-weight="700" fill="#fff" text-anchor="middle">P</text>
<text x="424.0" y="65.1" font-size="7.6" font-weight="700" fill="#fff" text-anchor="middle">3</text>
<text x="419.4" y="77.5" font-size="7.2" font-weight="700" fill="none" text-anchor="middle" stroke="#eef2ea" stroke-width="3" stroke-linejoin="round">POLI</text>
<text x="419.4" y="77.5" font-size="7.2" font-weight="700" fill="#0b3d8f" text-anchor="middle">POLI</text>
<rect x="307.2" y="40.8" width="16" height="16" rx="2.2" fill="#0b3d8f" stroke="#fff" stroke-width="1"/>
<text x="312.4" y="53.4" font-size="12.5" font-weight="700" fill="#fff" text-anchor="middle">P</text>
<text x="319.8" y="54.4" font-size="7.6" font-weight="700" fill="#fff" text-anchor="middle">4</text>
<text x="315.2" y="66.8" font-size="7.2" font-weight="700" fill="none" text-anchor="middle" stroke="#eef2ea" stroke-width="3" stroke-linejoin="round">TEOLOGÍA</text>
<text x="315.2" y="66.8" font-size="7.2" font-weight="700" fill="#0b3d8f" text-anchor="middle">TEOLOGÍA</text>
<rect x="229.7" y="160.1" width="16" height="16" rx="2.2" fill="#0b3d8f" stroke="#fff" stroke-width="1"/>
<text x="234.9" y="172.7" font-size="12.5" font-weight="700" fill="#fff" text-anchor="middle">P</text>
<text x="242.3" y="173.7" font-size="7.6" font-weight="700" fill="#fff" text-anchor="middle">5</text>
<text x="237.7" y="186.1" font-size="7.2" font-weight="700" fill="none" text-anchor="middle" stroke="#eef2ea" stroke-width="3" stroke-linejoin="round">AMIGOS</text>
<text x="237.7" y="186.1" font-size="7.2" font-weight="700" fill="#0b3d8f" text-anchor="middle">AMIGOS</text>
<rect x="201.9" y="263.9" width="16" height="16" rx="2.2" fill="#0b3d8f" stroke="#fff" stroke-width="1"/>
<text x="207.1" y="276.5" font-size="12.5" font-weight="700" fill="#fff" text-anchor="middle">P</text>
<text x="214.5" y="277.5" font-size="7.6" font-weight="700" fill="#fff" text-anchor="middle">6</text>
<text x="209.9" y="289.9" font-size="7.2" font-weight="700" fill="none" text-anchor="middle" stroke="#eef2ea" stroke-width="3" stroke-linejoin="round">FCOM</text>
<text x="209.9" y="289.9" font-size="7.2" font-weight="700" fill="#0b3d8f" text-anchor="middle">FCOM</text>
<rect x="174.7" y="274.1" width="16" height="16" rx="2.2" fill="#0b3d8f" stroke="#fff" stroke-width="1"/>
<text x="179.9" y="286.7" font-size="12.5" font-weight="700" fill="#fff" text-anchor="middle">P</text>
<text x="187.3" y="287.7" font-size="7.6" font-weight="700" fill="#fff" text-anchor="middle">7</text>
<text x="182.7" y="300.1" font-size="7.2" font-weight="700" fill="none" text-anchor="middle" stroke="#eef2ea" stroke-width="3" stroke-linejoin="round">MUSEO</text>
<text x="182.7" y="300.1" font-size="7.2" font-weight="700" fill="#0b3d8f" text-anchor="middle">MUSEO</text>
<rect x="32.8" y="502.3" width="16" height="16" rx="2.2" fill="#0b3d8f" stroke="#fff" stroke-width="1"/>
<text x="38.0" y="514.9" font-size="12.5" font-weight="700" fill="#fff" text-anchor="middle">P</text>
<text x="45.4" y="515.9" font-size="7.6" font-weight="700" fill="#fff" text-anchor="middle">8</text>
<text x="40.8" y="528.3" font-size="7.2" font-weight="700" fill="none" text-anchor="middle" stroke="#eef2ea" stroke-width="3" stroke-linejoin="round">CIMA (subt.)</text>
<text x="40.8" y="528.3" font-size="7.2" font-weight="700" fill="#0b3d8f" text-anchor="middle">CIMA (subt.)</text>
<rect x="339.2" y="370.9" width="16" height="16" rx="2.2" fill="#0b3d8f" stroke="#fff" stroke-width="1"/>
<text x="344.4" y="383.5" font-size="12.5" font-weight="700" fill="#fff" text-anchor="middle">P</text>
<text x="351.8" y="384.5" font-size="7.6" font-weight="700" fill="#fff" text-anchor="middle">9</text>
<text x="347.2" y="396.9" font-size="7.2" font-weight="700" fill="none" text-anchor="middle" stroke="#eef2ea" stroke-width="3" stroke-linejoin="round">ARQUITECTURA</text>
<text x="347.2" y="396.9" font-size="7.2" font-weight="700" fill="#0b3d8f" text-anchor="middle">ARQUITECTURA</text>
<g transform="translate(426,592)"><circle r="17" fill="#fff" stroke="#9aa5ad"/><path d="M-13,0 L-2,-5 L-2,5 Z" fill="#c62828"/><path d="M13,0 L2,-5 L2,5 Z" fill="#9aa5ad"/><text x="-7" y="-8" font-size="9" font-weight="700" fill="#c62828" text-anchor="middle">N</text></g>
<text x="230.0" y="660" font-size="10" fill="#566" text-anchor="middle" font-weight="700">Aparcamientos UNAV · Pamplona</text>
<text x="230.0" y="676" font-size="7.5" fill="#889" text-anchor="middle">Esquema aproximado · Este arriba · contornos dibujados por Al sobre satélite</text>
</svg>